<svg xmlns="http://www.w3.org/2000/svg" xmlns:xlink="http://www.w3.org/1999/xlink" width="120" height="120"><defs><path id="a" d="M0 120h120V0H0z"/></defs><g fill="none" fill-rule="evenodd"><mask id="b" fill="#fff"><use xlink:href="#a"/></mask><path stroke="#000" stroke-width="2" d="M13 11v6h7l38 29h4l38-29h7v-6" mask="url(#b)" transform="matrix(1 0 0 -1 0 57)"/><g mask="url(#b)"><path fill="#FFD7D2" d="M92.337 25.965L41.08 32.258c.366 2.978-.383 5.085-3.36 5.45s-4.215-1.497-4.58-4.475l-9.57 1.175-4.669 5.946 4.794 39.041 5.968 4.64 9.57-1.175c-.366-2.977.383-5.084 3.36-5.45s4.215 1.498 4.58 4.475l51.257-6.293 4.669-5.946-4.794-39.041-5.968-4.64z"/><path stroke="#000" stroke-width="2" d="M92.337 25.965L41.08 32.258c.366 2.978-.383 5.085-3.36 5.45s-4.215-1.497-4.58-4.475l-9.57 1.175-4.669 5.946 4.794 39.041 5.968 4.64 9.57-1.175c-.366-2.977.383-5.084 3.36-5.45s4.215 1.498 4.58 4.475l51.257-6.293 4.669-5.946-4.794-39.041-5.968-4.64zM38.45 43.664l.488 3.97m-.488-3.97l.488 3.97m3.412 27.791l.244 1.985m-4.875-39.702l.244 1.985m1.462 11.911l.488 3.97m.487 3.97l.488 3.97m.487 3.97l.488 3.97m19.224.663l16.7-36.306m0 0c-1.063 2.22-1.727 3.645-1.994 4.275-.719 1.698-2.668 2.343-4.72 2.595s-4.095-.329-5.824-2.308M78.18 54.906c4.165-.512 7.198 1.704 7.784 6.475.606 4.935-1.79 7.901-5.955 8.413-4.08.5-7.33-1.73-7.94-6.707-.592-4.811 2.032-7.68 6.111-8.181zM58.992 38.119c4.164-.511 7.197 1.705 7.783 6.476.606 4.935-1.79 7.9-5.955 8.412-4.08.501-7.33-1.73-7.94-6.706-.592-4.812 2.032-7.681 6.112-8.182z"/></g><path fill="#FFF" d="M13 52h7l33 25.5 3-2.5h8l3 2.5L100 52h7v56H13z" mask="url(#b)"/><path stroke="#000" stroke-width="2" d="M107 46v62H13V46m0 0v6h7l33 25.5m14 0L100 52h7v-6" mask="url(#b)"/><path stroke="#000" stroke-width="2" d="M13 108l43-33h8l43 33" mask="url(#b)"/></g></svg>